<svg xmlns="http://www.w3.org/2000/svg" width="60" height="60" viewBox="0 0 60 60">
  <title>bigknob</title>
  <g id="Layer_1" data-name="Layer 1">
    <path d="M34.91,3.71H25.29a18,18,0,0,1-15.59,9L4.89,21a18,18,0,0,1,0,18L9.7,47.36a18,18,0,0,1,15.59,9h9.62a18,18,0,0,1,15.58-9L55.3,39a18,18,0,0,1,0-18l-4.81-8.32A18,18,0,0,1,34.91,3.71Z" style="fill: #ff5f4c;stroke: #000;stroke-miterlimit: 10"/>
  </g>
  <g id="Layer_2" data-name="Layer 2">
    <polygon points="29.63 6.5 23.76 29.5 35.5 29.5 29.63 6.5" style="fill: #ddb9ff;stroke: #000;stroke-miterlimit: 10"/>
  </g>
</svg>
