<svg xmlns="http://www.w3.org/2000/svg" xmlns:xlink="http://www.w3.org/1999/xlink" width="10.16mm" height="128.5mm" viewBox="0 0 28.8 364.25">
  <defs>
    <clipPath id="clip-path">
      <rect width="28.8" height="364.25" style="fill: none"/>
    </clipPath>
  </defs>
  <title>getrekt</title>
  <g id="clippin_mask" data-name="clippin mask">
    <g style="clip-path: url(#clip-path)">
      <rect width="28.8" height="364.25" style="fill: #ae9393"/>
      <rect x="-10.33" y="24.67" width="51.67" height="30.09" style="fill: #c9b7b7"/>
      <rect x="-12.33" y="97.33" width="64.33" height="29.1" style="fill: #c9b7b7"/>
      <rect x="-18.67" y="170.67" width="78" height="28.03" style="fill: #c9b7b7"/>
      <rect x="-22" y="242.33" width="81.33" height="28.82" style="fill: #c9b7b7"/>
      <rect x="-24" y="54.76" width="70" height="29.57"/>
      <rect x="-26.67" y="126.43" width="78.67" height="27.57"/>
      <rect x="-17.67" y="198.69" width="69.67" height="30.31"/>
      <rect x="-18.67" y="271.15" width="60" height="27.18"/>
      <g>
        <path d="M8.94,332.14v-.76h2.73v2.39a4.91,4.91,0,0,1-1.3.75,3.79,3.79,0,0,1-1.37.26,3.64,3.64,0,0,1-1.72-.41,2.69,2.69,0,0,1-1.18-1.18,3.71,3.71,0,0,1-.39-1.71,4,4,0,0,1,.39-1.76,2.61,2.61,0,0,1,1.13-1.21,3.63,3.63,0,0,1,1.71-.4,3.4,3.4,0,0,1,1.26.23,2.08,2.08,0,0,1,.88.63,2.68,2.68,0,0,1,.49,1.06l-.77.21a2.18,2.18,0,0,0-.36-.78,1.52,1.52,0,0,0-.61-.45,2.35,2.35,0,0,0-.89-.17,2.57,2.57,0,0,0-1,.18,2,2,0,0,0-.69.47,2.41,2.41,0,0,0-.41.64,3.44,3.44,0,0,0-.24,1.29,3.21,3.21,0,0,0,.29,1.44,1.93,1.93,0,0,0,.87.87A2.78,2.78,0,0,0,9,334a2.71,2.71,0,0,0,1.08-.22,2.64,2.64,0,0,0,.8-.45v-1.2Z"/>
        <path d="M12.94,334.67v-6.45H17.6V329H13.8v2h3.56v.75H13.8v2.2h3.95v.76Z"/>
        <path d="M20.57,334.67V329H18.45v-.76h5.1V329H21.42v5.69Z"/>
        <path d="M3.19,345.47V339H6a3.66,3.66,0,0,1,1.31.18,1.42,1.42,0,0,1,.72.61,1.82,1.82,0,0,1,.27,1,1.62,1.62,0,0,1-.45,1.16,2.21,2.21,0,0,1-1.37.59,2.13,2.13,0,0,1,.52.33,4.07,4.07,0,0,1,.7.85l1.12,1.76H7.79l-.85-1.34a9,9,0,0,0-.62-.89,1.72,1.72,0,0,0-.43-.43,1.32,1.32,0,0,0-.39-.17,2.3,2.3,0,0,0-.47,0H4v2.87Zm.85-3.6H5.87a2.81,2.81,0,0,0,.92-.12,1,1,0,0,0,.5-.39,1.09,1.09,0,0,0,.17-.58,1,1,0,0,0-.33-.75,1.53,1.53,0,0,0-1-.29H4Z"/>
        <path d="M9.69,345.47V339h4.66v.76H10.54v2h3.57v.75H10.54v2.2h4v.76Z"/>
        <path d="M15.64,345.47V339h.85v3.2l3.2-3.2h1.16l-2.7,2.61L21,345.47H19.84l-2.29-3.26-1.06,1v2.24Z"/>
        <path d="M23.32,345.47v-5.69H21.2V339h5.1v.76H24.17v5.69Z"/>
      </g>
    </g>
  </g>
</svg>
