<?xml version="1.0" encoding="UTF-8" standalone="no"?>
<!-- Created with Inkscape (http://www.inkscape.org/) -->

<svg
   xmlns:dc="http://purl.org/dc/elements/1.1/"
   xmlns:cc="http://creativecommons.org/ns#"
   xmlns:rdf="http://www.w3.org/1999/02/22-rdf-syntax-ns#"
   xmlns:svg="http://www.w3.org/2000/svg"
   xmlns="http://www.w3.org/2000/svg"
   xmlns:sodipodi="http://sodipodi.sourceforge.net/DTD/sodipodi-0.dtd"
   xmlns:inkscape="http://www.inkscape.org/namespaces/inkscape"
   width="15.24mm"
   height="128.5mm"
   viewBox="0 0 15.24 128.5"
   version="1.1"
   id="svg16"
   inkscape:version="0.92.2 5c3e80d, 2017-08-06"
   sodipodi:docname="gray.svg">
  <sodipodi:namedview
     id="base"
     pagecolor="#ffffff"
     bordercolor="#666666"
     borderopacity="1.0"
     inkscape:pageopacity="0.0"
     inkscape:pageshadow="2"
     inkscape:zoom="1.63"
     inkscape:cx="-21.29545"
     inkscape:cy="135.6907"
     inkscape:document-units="mm"
     inkscape:current-layer="layer2"
     showgrid="false"
     inkscape:window-width="1440"
     inkscape:window-height="852"
     inkscape:window-x="0"
     inkscape:window-y="0"
     inkscape:window-maximized="1"
     showguides="true"
     inkscape:guide-bbox="true"
     inkscape:snap-global="false">
    <sodipodi:guide
       position="8.5204805,101.9468"
       orientation="1,0"
       id="guide208"
       inkscape:locked="false" />
    <sodipodi:guide
       position="18.944167,119.90917"
       orientation="1,0"
       id="guide210"
       inkscape:locked="false" />
    <sodipodi:guide
       position="4.3215279,107.24445"
       orientation="0,1"
       id="guide220"
       inkscape:locked="false" />
    <sodipodi:guide
       position="0.17638889,115.71111"
       orientation="0,1"
       id="guide256"
       inkscape:locked="false" />
  </sodipodi:namedview>
  <defs
     id="defs10" />
  <metadata
     id="metadata13">
    <rdf:RDF>
      <cc:Work
         rdf:about="">
        <dc:format>image/svg+xml</dc:format>
        <dc:type
           rdf:resource="http://purl.org/dc/dcmitype/StillImage" />
        <dc:title />
      </cc:Work>
    </rdf:RDF>
  </metadata>
  <g
     inkscape:label="Layer 3"
     id="layer3"
     inkscape:groupmode="layer"
     style="display:inline" />
  <g
     transform="translate(0,-168.5)"
     id="layer1"
     inkscape:groupmode="layer"
     inkscape:label="Layer 1"
     style="display:inline">
    <flowRoot
       transform="matrix(0.36891377,0,0,0.36891377,47.349857,22.52858)"
       style="font-style:normal;font-weight:normal;font-size:40px;line-height:1.25;font-family:sans-serif;letter-spacing:0px;word-spacing:0px;fill:#000000;fill-opacity:1;stroke:none"
       id="flowRoot18"
       xml:space="preserve"><flowRegion
         id="flowRegion20"><rect
           y="383.66928"
           x="-124"
           height="105"
           width="449"
           id="rect22" /></flowRegion><flowPara
         style="font-size:13.33333397px"
         id="flowPara24" /></flowRoot>    <rect
       y="168.67708"
       x="0.21166667"
       height="128.32292"
       width="30.48"
       id="rect26"
       style="fill:#ac9393;stroke-width:0.31950316" />
    <rect
       y="172.96333"
       x="4.4449997"
       height="27.516666"
       width="23.071665"
       id="rect110"
       style="fill:#ac9393;stroke-width:0.26458332" />
  </g>
  <g
     inkscape:label="Layer 2"
     id="layer2"
     inkscape:groupmode="layer"
     style="display:inline">
    <rect
       y="8.5730448"
       x="-19.041235"
       height="56.571507"
       width="53.705032"
       id="rect113"
       style="fill:#c8b7b7;stroke-width:0.74970561" />
    <g
       aria-label="IN"
       style="font-style:normal;font-weight:normal;font-size:2.36167264px;line-height:1.25;font-family:sans-serif;letter-spacing:0px;word-spacing:0px;fill:#f9f9f9;fill-opacity:1;stroke:none;stroke-width:0.05904182"
       id="text206"
       transform="translate(-3.7041668,27.516678)">
      <path
         d="m 15.346448,26.26954 h 0.232939 v 1.721669 h -0.232939 z"
         style="fill:#f9f9f9;stroke-width:0.05904182"
         id="path258"
         inkscape:connector-curvature="0" />
      <path
         d="m 16.042957,26.26954 h 0.31366 l 0.763392,1.440298 V 26.26954 h 0.22602 v 1.721669 h -0.31366 l -0.763392,-1.440297 v 1.440297 h -0.22602 z"
         style="fill:#f9f9f9;stroke-width:0.05904182"
         id="path260"
         inkscape:connector-curvature="0" />
    </g>
    <g
       aria-label="1"
       style="font-style:normal;font-weight:normal;font-size:2.82222223px;line-height:1.25;font-family:sans-serif;letter-spacing:0px;word-spacing:0px;fill:#000000;fill-opacity:1;stroke:none;stroke-width:0.26458332"
       id="text230"
       transform="translate(0.37257661,-0.54158141)">
      <path
         d="m 11.727105,11.584482 h 0.454753 v -1.569586 l -0.494716,0.09922 V 9.8605562 l 0.49196,-0.099219 h 0.278364 v 1.8231448 h 0.454752 v 0.234266 h -1.185113 z"
         style="stroke-width:0.26458332"
         id="path244"
         inkscape:connector-curvature="0" />
    </g>
    <g
       aria-label="2"
       style="font-style:normal;font-weight:normal;font-size:2.82222223px;line-height:1.25;font-family:sans-serif;letter-spacing:0px;word-spacing:0px;fill:#000000;fill-opacity:1;stroke:none;stroke-width:0.26458332"
       id="text238"
       transform="translate(0.5291666,0.52916663)">
      <path
         d="m 12.006847,21.021286 h 0.971517 v 0.234266 h -1.306381 v -0.234266 q 0.158475,-0.163987 0.431326,-0.439594 0.27423,-0.276986 0.34451,-0.356912 0.13367,-0.150206 0.186035,-0.253559 0.05374,-0.104731 0.05374,-0.205328 0,-0.163987 -0.115756,-0.267339 -0.114377,-0.103353 -0.299034,-0.103353 -0.130914,0 -0.276986,0.04547 -0.144694,0.04547 -0.310058,0.137804 v -0.28112 q 0.16812,-0.06752 0.314192,-0.101975 0.146073,-0.03445 0.26734,-0.03445 0.319705,0 0.509874,0.159853 0.190169,0.159852 0.190169,0.427192 0,0.126779 -0.04823,0.241156 -0.04685,0.112999 -0.172255,0.26734 -0.03445,0.03996 -0.219108,0.23151 -0.184657,0.190169 -0.520898,0.533301 z"
         style="stroke-width:0.26458332"
         id="path250"
         inkscape:connector-curvature="0" />
    </g>
    <g
       aria-label="4"
       style="font-style:normal;font-weight:normal;font-size:2.82222223px;line-height:1.25;font-family:sans-serif;letter-spacing:0px;word-spacing:0px;fill:#000000;fill-opacity:1;stroke:none;stroke-width:0.26458332"
       id="text46"
       transform="translate(-6.3500001,17.991672)">
      <path
         d="m 19.072968,12.032347 -0.702799,1.098296 h 0.702799 z m -0.07304,-0.242535 h 0.350022 v 1.340831 h 0.293522 v 0.231511 H 19.34995 v 0.485069 h -0.276986 v -0.485069 h -0.928797 v -0.268718 z"
         style="stroke-width:0.26458332"
         id="path55"
         inkscape:connector-curvature="0" />
    </g>
    <g
       aria-label="8"
       style="font-style:normal;font-weight:normal;font-size:2.82222223px;line-height:1.25;font-family:sans-serif;letter-spacing:0px;word-spacing:0px;fill:#000000;fill-opacity:1;stroke:none;stroke-width:0.26458332"
       id="text50"
       transform="translate(-6.3500001,19.579173)">
      <path
         d="m 18.973046,21.848386 q -0.198438,0 -0.312815,0.106109 -0.112999,0.106108 -0.112999,0.292144 0,0.186035 0.112999,0.292144 0.114377,0.106109 0.312815,0.106109 0.198437,0 0.312815,-0.106109 0.114377,-0.107487 0.114377,-0.292144 0,-0.186036 -0.114377,-0.292144 -0.113,-0.106109 -0.312815,-0.106109 z m -0.278364,-0.118512 q -0.179145,-0.0441 -0.279742,-0.166742 -0.09922,-0.122646 -0.09922,-0.299035 0,-0.246668 0.17501,-0.389984 0.176389,-0.143316 0.482314,-0.143316 0.307302,0 0.482313,0.143316 0.175011,0.143316 0.175011,0.389984 0,0.176389 -0.100597,0.299035 -0.09922,0.122645 -0.276985,0.166742 0.201193,0.04685 0.312814,0.183279 0.112999,0.136426 0.112999,0.333486 0,0.299034 -0.183279,0.458886 -0.181901,0.159853 -0.522276,0.159853 -0.340376,0 -0.523655,-0.159853 -0.181901,-0.159852 -0.181901,-0.458886 0,-0.19706 0.112999,-0.333486 0.113,-0.136425 0.314193,-0.183279 z M 18.592707,21.29028 q 0,0.159853 0.09922,0.249425 0.100597,0.08957 0.28112,0.08957 0.179145,0 0.279742,-0.08957 0.101974,-0.08957 0.101974,-0.249425 0,-0.159852 -0.101974,-0.249425 -0.100597,-0.08957 -0.279742,-0.08957 -0.180523,0 -0.28112,0.08957 -0.09922,0.08957 -0.09922,0.249425 z"
         style="stroke-width:0.26458332"
         id="path52"
         inkscape:connector-curvature="0" />
    </g>
    <g
       aria-label="DIVIDAH"
       style="font-style:normal;font-weight:normal;font-size:2.82222223px;line-height:1.25;font-family:sans-serif;letter-spacing:0px;word-spacing:0px;fill:#000000;fill-opacity:1;stroke:none;stroke-width:0.26458332"
       id="text78"
       transform="translate(-6.3500003,10.054167)">
      <path
         d="m 9.5511733,111.32548 v 1.5999 h 0.3362413 q 0.4258134,0 0.6228734,-0.19292 0.198437,-0.19293 0.198437,-0.6091 0,-0.41341 -0.198437,-0.60495 -0.19706,-0.19293 -0.6228734,-0.19293 z m -0.2783638,-0.22875 h 0.5718859 q 0.5980686,0 0.8778106,0.24942 0.279741,0.24805 0.279741,0.77721 0,0.53193 -0.281119,0.78135 -0.28112,0.24943 -0.8764326,0.24943 H 9.2728095 Z"
         style="stroke-width:0.26458332"
         id="path80"
         inkscape:connector-curvature="0" />
      <path
         d="m 11.444598,111.09673 h 0.278363 v 2.05741 h -0.278363 z"
         style="stroke-width:0.26458332"
         id="path82"
         inkscape:connector-curvature="0" />
      <path
         d="m 12.807477,113.15414 -0.785481,-2.05741 h 0.290766 l 0.651812,1.73219 0.65319,-1.73219 h 0.289388 l -0.784104,2.05741 z"
         style="stroke-width:0.26458332"
         id="path84"
         inkscape:connector-curvature="0" />
      <path
         d="m 14.206186,111.09673 h 0.278364 v 2.05741 h -0.278364 z"
         style="stroke-width:0.26458332"
         id="path86"
         inkscape:connector-curvature="0" />
      <path
         d="m 15.316885,111.32548 v 1.5999 h 0.336241 q 0.425814,0 0.622874,-0.19292 0.198437,-0.19293 0.198437,-0.6091 0,-0.41341 -0.198437,-0.60495 -0.19706,-0.19293 -0.622874,-0.19293 z m -0.278364,-0.22875 h 0.571886 q 0.598069,0 0.877811,0.24942 0.279741,0.24805 0.279741,0.77721 0,0.53193 -0.28112,0.78135 -0.281119,0.24943 -0.876432,0.24943 h -0.571886 z"
         style="stroke-width:0.26458332"
         id="path88"
         inkscape:connector-curvature="0" />
      <path
         d="m 17.851097,111.37096 -0.377582,1.02388 h 0.756543 z m -0.157096,-0.27423 h 0.31557 l 0.784104,2.05741 h -0.289388 l -0.187413,-0.52779 h -0.92742 l -0.187413,0.52779 h -0.293522 z"
         style="stroke-width:0.26458332"
         id="path90"
         inkscape:connector-curvature="0" />
      <path
         d="m 19.095466,111.09673 h 0.278364 v 0.84336 h 1.01148 v -0.84336 h 0.278364 v 2.05741 H 20.38531 v -0.97979 h -1.01148 v 0.97979 h -0.278364 z"
         style="stroke-width:0.26458332"
         id="path92"
         inkscape:connector-curvature="0" />
    </g>
  </g>
</svg>
