<?xml version="1.0" encoding="UTF-8" standalone="no"?>
<!-- Created with Inkscape (http://www.inkscape.org/) -->

<svg
   xmlns:dc="http://purl.org/dc/elements/1.1/"
   xmlns:cc="http://creativecommons.org/ns#"
   xmlns:rdf="http://www.w3.org/1999/02/22-rdf-syntax-ns#"
   xmlns:svg="http://www.w3.org/2000/svg"
   xmlns="http://www.w3.org/2000/svg"
   xmlns:sodipodi="http://sodipodi.sourceforge.net/DTD/sodipodi-0.dtd"
   xmlns:inkscape="http://www.inkscape.org/namespaces/inkscape"
   width="30.48mm"
   height="128.5mm"
   viewBox="0 0 30.48 128.5"
   version="1.1"
   id="svg16"
   inkscape:version="0.92.2 5c3e80d, 2017-08-06"
   sodipodi:docname="hooptie.svg">
  <sodipodi:namedview
     id="base"
     pagecolor="#ffffff"
     bordercolor="#666666"
     borderopacity="1.0"
     inkscape:pageopacity="0.0"
     inkscape:pageshadow="2"
     inkscape:zoom="4"
     inkscape:cx="60.554099"
     inkscape:cy="79.778331"
     inkscape:document-units="mm"
     inkscape:current-layer="layer5"
     showgrid="false"
     inkscape:window-width="1440"
     inkscape:window-height="852"
     inkscape:window-x="0"
     inkscape:window-y="0"
     inkscape:window-maximized="1"
     showguides="true"
     inkscape:guide-bbox="true"
     inkscape:snap-global="false"
     units="in">
    <sodipodi:guide
       position="11.244792,4.7625001"
       orientation="1,0"
       id="guide208"
       inkscape:locked="false" />
    <sodipodi:guide
       position="18.944167,119.90917"
       orientation="1,0"
       id="guide210"
       inkscape:locked="false" />
    <sodipodi:guide
       position="4.3215279,107.24445"
       orientation="0,1"
       id="guide220"
       inkscape:locked="false" />
    <sodipodi:guide
       position="0.17638889,115.71111"
       orientation="0,1"
       id="guide256"
       inkscape:locked="false" />
    <sodipodi:guide
       position="13.096875,9.5250002"
       orientation="0,1"
       id="guide899"
       inkscape:locked="false" />
  </sodipodi:namedview>
  <defs
     id="defs10" />
  <metadata
     id="metadata13">
    <rdf:RDF>
      <cc:Work
         rdf:about="">
        <dc:format>image/svg+xml</dc:format>
        <dc:type
           rdf:resource="http://purl.org/dc/dcmitype/StillImage" />
        <dc:title></dc:title>
      </cc:Work>
    </rdf:RDF>
  </metadata>
  <g
     inkscape:label="Layer 3"
     id="layer3"
     inkscape:groupmode="layer"
     style="display:inline"
     sodipodi:insensitive="true" />
  <g
     transform="translate(0,-168.5)"
     id="layer1"
     inkscape:groupmode="layer"
     inkscape:label="Layer 1"
     style="display:inline"
     sodipodi:insensitive="true">
    <flowRoot
       transform="matrix(0.36891377,0,0,0.36891377,47.349857,22.52858)"
       style="font-style:normal;font-weight:normal;font-size:40px;line-height:1.25;font-family:sans-serif;letter-spacing:0px;word-spacing:0px;fill:#000000;fill-opacity:1;stroke:none"
       id="flowRoot18"
       xml:space="preserve"><flowRegion
         id="flowRegion20"><rect
           y="383.66928"
           x="-124"
           height="105"
           width="449"
           id="rect22" /></flowRegion><flowPara
         style="font-size:13.33333397px"
         id="flowPara24" /></flowRoot>    <rect
       y="168.67708"
       x="0.21166667"
       height="128.32292"
       width="45.452923"
       id="rect26"
       style="fill:#ac9393;stroke-width:0.39016524" />
    <rect
       y="172.96333"
       x="4.4449997"
       height="27.516666"
       width="23.071665"
       id="rect110"
       style="fill:#ac9393;stroke-width:0.26458332" />
  </g>
  <g
     inkscape:label="Layer 2"
     id="layer2"
     inkscape:groupmode="layer"
     style="display:inline"
     sodipodi:insensitive="true">
    <rect
       y="9.6313782"
       x="0.0087650213"
       height="94.936089"
       width="50.808647"
       id="rect113"
       style="fill:#c8b7b7;stroke-width:0.94464558" />
    <g
       aria-label="IN"
       style="font-style:normal;font-weight:normal;font-size:2.36167264px;line-height:1.25;font-family:sans-serif;letter-spacing:0px;word-spacing:0px;fill:#f9f9f9;fill-opacity:1;stroke:none;stroke-width:0.05904182"
       id="text206"
       transform="translate(-10.186459,91.016681)">
      <path
         d="m 15.346448,26.26954 h 0.232939 v 1.721669 h -0.232939 z"
         style="fill:#f9f9f9;stroke-width:0.05904182"
         id="path258"
         inkscape:connector-curvature="0" />
      <path
         d="m 16.042957,26.26954 h 0.31366 l 0.763392,1.440298 V 26.26954 h 0.22602 v 1.721669 h -0.31366 l -0.763392,-1.440297 v 1.440297 h -0.22602 z"
         style="fill:#f9f9f9;stroke-width:0.05904182"
         id="path260"
         inkscape:connector-curvature="0" />
    </g>
    <g
       aria-label="Hooptie"
       transform="matrix(0.26458333,0,0,0.26458333,85.545631,49.802536)"
       style="font-style:normal;font-weight:normal;font-size:40px;line-height:1.25;font-family:sans-serif;letter-spacing:0px;word-spacing:0px;fill:#000000;fill-opacity:1;stroke:none"
       id="flowRoot145">
      <path
         d="m -310.60937,281.38216 h 1.05208 v 3.1875 h 3.82292 v -3.1875 h 1.05208 v 7.77604 h -1.05208 v -3.70312 h -3.82292 v 3.70312 h -1.05208 z"
         style="font-size:10.66666698px"
         id="path55"
         inkscape:connector-curvature="0" />
      <path
         d="m -300.36979,283.99674 q -0.77083,0 -1.21875,0.60417 -0.44792,0.59896 -0.44792,1.64583 0,1.04688 0.44271,1.65105 0.44792,0.59895 1.22396,0.59895 0.76562,0 1.21354,-0.60416 0.44792,-0.60417 0.44792,-1.64584 0,-1.03645 -0.44792,-1.64062 -0.44792,-0.60938 -1.21354,-0.60938 z m 0,-0.8125 q 1.25,0 1.96354,0.8125 0.71354,0.8125 0.71354,2.25 0,1.4323 -0.71354,2.25 -0.71354,0.8125 -1.96354,0.8125 -1.25521,0 -1.96875,-0.8125 -0.70833,-0.8177 -0.70833,-2.25 0,-1.4375 0.70833,-2.25 0.71354,-0.8125 1.96875,-0.8125 z"
         style="font-size:10.66666698px"
         id="path57"
         inkscape:connector-curvature="0" />
      <path
         d="m -293.84896,283.99674 q -0.77083,0 -1.21875,0.60417 -0.44791,0.59896 -0.44791,1.64583 0,1.04688 0.4427,1.65105 0.44792,0.59895 1.22396,0.59895 0.76563,0 1.21354,-0.60416 0.44792,-0.60417 0.44792,-1.64584 0,-1.03645 -0.44792,-1.64062 -0.44791,-0.60938 -1.21354,-0.60938 z m 0,-0.8125 q 1.25,0 1.96354,0.8125 0.71355,0.8125 0.71355,2.25 0,1.4323 -0.71355,2.25 -0.71354,0.8125 -1.96354,0.8125 -1.25521,0 -1.96875,-0.8125 -0.70833,-0.8177 -0.70833,-2.25 0,-1.4375 0.70833,-2.25 0.71354,-0.8125 1.96875,-0.8125 z"
         style="font-size:10.66666698px"
         id="path59"
         inkscape:connector-curvature="0" />
      <path
         d="m -288.66146,288.2832 v 3.09375 h -0.96354 v -8.05208 h 0.96354 v 0.88542 q 0.30209,-0.52084 0.76042,-0.77084 0.46354,-0.25521 1.10417,-0.25521 1.0625,0 1.72395,0.84375 0.66667,0.84375 0.66667,2.21875 0,1.375 -0.66667,2.21875 -0.66145,0.84375 -1.72395,0.84375 -0.64063,0 -1.10417,-0.25 -0.45833,-0.2552 -0.76042,-0.77604 z m 3.26042,-2.03646 q 0,-1.05729 -0.4375,-1.65625 -0.43229,-0.60416 -1.19271,-0.60416 -0.76042,0 -1.19792,0.60416 -0.43229,0.59896 -0.43229,1.65625 0,1.0573 0.43229,1.66146 0.4375,0.59896 1.19792,0.59896 0.76042,0 1.19271,-0.59896 0.4375,-0.60416 0.4375,-1.66146 z"
         style="font-size:10.66666698px"
         id="path61"
         inkscape:connector-curvature="0" />
      <path
         d="m -281.86979,281.66862 v 1.65625 h 1.97396 v 0.74479 h -1.97396 v 3.16667 q 0,0.71354 0.19271,0.91666 0.19791,0.20313 0.79687,0.20313 h 0.98438 v 0.80208 h -0.98438 q -1.10937,0 -1.53125,-0.41146 -0.42187,-0.41666 -0.42187,-1.51041 v -3.16667 h -0.70313 v -0.74479 h 0.70313 v -1.65625 z"
         style="font-size:10.66666698px"
         id="path63"
         inkscape:connector-curvature="0" />
      <path
         d="m -278.63021,283.32487 h 0.95834 v 5.83333 h -0.95834 z m 0,-2.27083 h 0.95834 v 1.21354 h -0.95834 z"
         style="font-size:10.66666698px"
         id="path65"
         inkscape:connector-curvature="0" />
      <path
         d="m -270.68229,286.00195 v 0.46875 h -4.40625 q 0.0625,0.98959 0.59375,1.51042 0.53646,0.51562 1.48958,0.51562 0.55209,0 1.06771,-0.13541 0.52083,-0.13542 1.03125,-0.40625 v 0.90625 q -0.51562,0.21875 -1.05729,0.33333 -0.54167,0.11458 -1.09896,0.11458 -1.39583,0 -2.21354,-0.8125 -0.8125,-0.8125 -0.8125,-2.19791 0,-1.43229 0.77083,-2.27084 0.77604,-0.84375 2.08854,-0.84375 1.17709,0 1.85938,0.76042 0.6875,0.75521 0.6875,2.05729 z m -0.95833,-0.28125 q -0.0104,-0.78646 -0.44271,-1.25521 -0.42709,-0.46875 -1.13542,-0.46875 -0.80208,0 -1.28646,0.45313 -0.47916,0.45312 -0.55208,1.27604 z"
         style="font-size:10.66666698px"
         id="path67"
         inkscape:connector-curvature="0" />
    </g>
    <flowRoot
       xml:space="preserve"
       id="flowRoot82"
       style="font-style:normal;font-weight:normal;font-size:40px;line-height:1.25;font-family:sans-serif;letter-spacing:0px;word-spacing:0px;fill:#000000;fill-opacity:1;stroke:none"
       transform="scale(0.26458333)"><flowRegion
         id="flowRegion84"><rect
           id="rect86"
           width="76.5"
           height="56.5"
           x="-145.5"
           y="350.66928" /></flowRegion><flowPara
         id="flowPara88"></flowPara></flowRoot>    <g
       aria-label="OUT"
       style="font-style:normal;font-weight:normal;font-size:10.58333302px;line-height:1.25;font-family:sans-serif;letter-spacing:0px;word-spacing:0px;fill:#f9f9f9;fill-opacity:1;stroke:none;stroke-width:0.26458332"
       id="text92"
       transform="translate(-1.5875)">
      <path
         d="m 16.054316,117.33994 q -0.265272,0 -0.422024,0.19775 -0.155546,0.19775 -0.155546,0.53898 0,0.34004 0.155546,0.53778 0.156752,0.19775 0.422024,0.19775 0.265273,0 0.419613,-0.19775 0.155546,-0.19774 0.155546,-0.53778 0,-0.34123 -0.155546,-0.53898 -0.15434,-0.19775 -0.419613,-0.19775 z m 0,-0.19775 q 0.378616,0 0.605304,0.25442 0.226687,0.25322 0.226687,0.68006 0,0.42565 -0.226687,0.68007 -0.226688,0.25321 -0.605304,0.25321 -0.379821,0 -0.607714,-0.25321 -0.226688,-0.25322 -0.226688,-0.68007 0,-0.42684 0.226688,-0.68006 0.227893,-0.25442 0.607714,-0.25442 z"
         style="font-size:2.46944451px;fill:#f9f9f9;fill-opacity:1;stroke-width:0.26458332"
         id="path903"
         inkscape:connector-curvature="0" />
      <path
         d="m 17.239602,117.17475 h 0.244774 v 1.09364 q 0,0.28939 0.104903,0.41721 0.104903,0.1266 0.340031,0.1266 0.233922,0 0.338825,-0.1266 0.104903,-0.12782 0.104903,-0.41721 v -1.09364 h 0.244774 v 1.12379 q 0,0.35209 -0.174838,0.53175 -0.173633,0.17966 -0.513664,0.17966 -0.341237,0 -0.516076,-0.17966 -0.173632,-0.17966 -0.173632,-0.53175 z"
         style="font-size:2.46944451px;fill:#f9f9f9;fill-opacity:1;stroke-width:0.26458332"
         id="path905"
         inkscape:connector-curvature="0" />
      <path
         d="m 18.826413,117.17475 h 1.522904 v 0.20498 h -0.639065 v 1.59525 h -0.244774 v -1.59525 h -0.639065 z"
         style="font-size:2.46944451px;fill:#f9f9f9;fill-opacity:1;stroke-width:0.26458332"
         id="path907"
         inkscape:connector-curvature="0" />
    </g>
    <rect
       style="fill:#e6e6e6;fill-opacity:1;stroke-width:0.07774577"
       id="rect901"
       width="0.66145831"
       height="14.419757"
       x="10.318751"
       y="104.55521" />
    <rect
       y="104.55521"
       x="20.769791"
       height="14.419757"
       width="0.66145831"
       id="rect910"
       style="fill:#e6e6e6;fill-opacity:1;stroke-width:0.07774577" />
    <g
       aria-label="RST"
       style="font-style:normal;font-weight:normal;font-size:10.58333302px;line-height:1.25;font-family:sans-serif;letter-spacing:0px;word-spacing:0px;fill:#000000;fill-opacity:1;stroke:none;stroke-width:0.26458332"
       id="text914"
       transform="translate(-0.52916667)">
      <path
         d="m 25.040849,117.99864 q 0.07838,0.0265 0.151929,0.11334 0.07476,0.0868 0.149517,0.23875 l 0.247185,0.49196 h -0.261655 l -0.230304,-0.46182 q -0.08923,-0.18086 -0.173633,-0.23995 -0.0832,-0.0591 -0.227893,-0.0591 h -0.265272 v 0.76085 h -0.243569 v -1.80024 h 0.549838 q 0.30868,0 0.460609,0.12902 0.151929,0.12902 0.151929,0.38947 0,0.17002 -0.07958,0.28216 -0.07838,0.11213 -0.229099,0.15554 z m -0.610126,-0.75603 v 0.63907 h 0.306269 q 0.176044,0 0.265272,-0.0808 0.09043,-0.082 0.09043,-0.23995 0,-0.15796 -0.09043,-0.23754 -0.08923,-0.0808 -0.265272,-0.0808 z"
         style="font-size:2.46944451px;fill:#f9f9f9;fill-opacity:1;stroke-width:0.26458332"
         id="path916"
         inkscape:connector-curvature="0" />
      <path
         d="m 26.983366,117.10154 v 0.23754 q -0.138665,-0.0663 -0.261655,-0.0989 -0.12299,-0.0326 -0.237539,-0.0326 -0.198955,0 -0.307475,0.0772 -0.107315,0.0772 -0.107315,0.21945 0,0.11937 0.07114,0.18087 0.07235,0.0603 0.272508,0.0977 l 0.147105,0.0301 q 0.272507,0.0519 0.401526,0.18328 0.130225,0.13022 0.130225,0.34968 0,0.26165 -0.176045,0.3967 -0.174838,0.13505 -0.513664,0.13505 -0.127813,0 -0.272507,-0.0289 -0.143488,-0.0289 -0.297828,-0.0856 v -0.25081 q 0.148311,0.0832 0.290594,0.12541 0.142282,0.0422 0.279741,0.0422 0.208601,0 0.321945,-0.082 0.113343,-0.082 0.113343,-0.23393 0,-0.13263 -0.08199,-0.20739 -0.08079,-0.0748 -0.266478,-0.11214 l -0.148311,-0.0289 q -0.272508,-0.0543 -0.394292,-0.17001 -0.121784,-0.11576 -0.121784,-0.32195 0,-0.23874 0.167604,-0.3762 0.16881,-0.13746 0.464227,-0.13746 0.126607,0 0.258037,0.0229 0.131431,0.0229 0.26889,0.0687 z"
         style="font-size:2.46944451px;fill:#f9f9f9;fill-opacity:1;stroke-width:0.26458332"
         id="path918"
         inkscape:connector-curvature="0" />
      <path
         d="m 27.222111,117.04245 h 1.522905 v 0.20499 H 28.10595 v 1.59525 h -0.244774 v -1.59525 h -0.639065 z"
         style="font-size:2.46944451px;fill:#f9f9f9;fill-opacity:1;stroke-width:0.26458332"
         id="path920"
         inkscape:connector-curvature="0" />
    </g>
  </g>
  <g
     inkscape:groupmode="layer"
     id="layer5"
     inkscape:label="knob text"
     style="display:inline"
     sodipodi:insensitive="true" />
</svg>
