<svg xmlns="http://www.w3.org/2000/svg" xmlns:xlink="http://www.w3.org/1999/xlink" width="30.48mm" height="128.5mm" viewBox="0 0 86.4 364.25">
  <defs>
    <clipPath id="clip-path">
      <rect x="-0.5" y="0.5" width="87" height="364" style="fill: none"/>
    </clipPath>
  </defs>
  <title>hooptie-rainbow</title>
  <g id="clippin">
    <g style="clip-path: url(#clip-path)">
      <rect x="-0.5" y="0.5" width="87" height="364" style="fill: #ae9393;stroke: #000;stroke-miterlimit: 10"/>
      <path d="M.37,10.56l8,13c.85,1.38,3.39.48,2.74-1.16-.71-1.82-4-7.54-.9-8.06a4.64,4.64,0,0,1,1.91.27c1,.32.86.39,1,1.21a3.43,3.43,0,0,1-3.23,3.64c-1.93-.11-1.93,2.89,0,3,3.13.17,5.19-2.19,6-5s.27-4.55-2.52-5.57C11,11,7.61,11,6,13.22c-1.92,2.67,1.19,7.43,2.19,10L11,22,3,9C2,7.4-.64,8.91.37,10.56Z" style="fill: #231f20"/>
      <path d="M13.52,5.89a28.06,28.06,0,0,1,5.71,12.17c.38,1.8,2.77,1.15,2.95-.4.29-2.39-1.51-3.67-1.88-5.82-.58-3.32,3.95-2.77,4.26.29.23,2.33-1.66,3.56-3.74,3.34-1.92-.2-1.9,2.81,0,3,6.55.68,9.48-8.54,3.44-11.51a5,5,0,0,0-6.84,2.38c-1.32,3.25,2.12,5.31,1.76,8.32l2.95-.39a31.31,31.31,0,0,0-6.49-13.5c-1.22-1.5-3.33.63-2.12,2.12Z" style="fill: #231f20"/>
      <path d="M28.7,6.76a30.15,30.15,0,0,1,2.59,7.11c.43,1.88,3.33,1.09,2.89-.79A34.15,34.15,0,0,0,31.3,5.24c-.88-1.72-3.47-.2-2.6,1.52Z" style="fill: #231f20"/>
      <rect x="-14.5" y="307.5" width="147" height="62" transform="translate(-143.15 60.65) rotate(-26.15)" style="fill: #ddb9ff;stroke: #000;stroke-miterlimit: 10"/>
      <rect x="-29.5" y="239.5" width="147" height="62" transform="translate(-114.72 47.08) rotate(-26.15)" style="fill: #e862c9;stroke: #000;stroke-miterlimit: 10"/>
      <rect x="-31.5" y="166.5" width="147" height="62" transform="translate(-82.75 38.73) rotate(-26.15)" style="fill: #ff5f4c;stroke: #000;stroke-miterlimit: 10"/>
      <rect x="-31.5" y="92.5" width="147" height="62" transform="translate(-50.13 31.15) rotate(-26.15)" style="fill: #e8853a;stroke: #000;stroke-miterlimit: 10"/>
      <rect x="-30.5" y="17.5" width="147" height="62" transform="translate(-16.97 23.92) rotate(-26.15)" style="fill: #ffe6ab;stroke: #000;stroke-miterlimit: 10"/>
      <path d="M27.88,4a1.5,1.5,0,0,0,0-3,1.5,1.5,0,0,0,0,3Z" style="fill: #231f20"/>
    </g>
  </g>
  <g id="knob-jack-led_mask" data-name="knob-jack-led mask" style="opacity: 0.65">
    <rect x="4.25" y="97" width="75" height="28" rx="12.32" ry="12.32"/>
    <rect x="4.25" y="131" width="75" height="28" rx="12.32" ry="12.32"/>
    <rect x="4.25" y="164" width="75" height="28" rx="12.32" ry="12.32"/>
    <rect x="4.25" y="197" width="75" height="28" rx="12.32" ry="12.32"/>
    <rect x="4.25" y="232" width="75" height="28" rx="12.32" ry="12.32"/>
    <rect x="4.25" y="265" width="75" height="28" rx="12.32" ry="12.32"/>
    <rect x="61" y="297.22" width="25" height="45" rx="12.32" ry="12.32" style="fill: #fff"/>
    <rect x="31" y="297.22" width="25" height="45" rx="12.32" ry="12.32"/>
    <rect x="2" y="297.22" width="25" height="45" rx="12.32" ry="12.32" style="fill: #fff"/>
    <rect x="4.25" y="63" width="75" height="28" rx="12.32" ry="12.32"/>
    <rect x="4.25" y="29" width="75" height="28" rx="12.32" ry="12.32"/>
  </g>
  <g id="text">
    <g>
      <path d="M11,338.5v-5.73h.75v5.73Z"/>
      <path d="M13.08,338.5v-5.73h.78l3,4.5v-4.5h.72v5.73h-.77l-3-4.5v4.5Z"/>
    </g>
    <g>
      <path d="M35.89,336a3.11,3.11,0,0,1,.76-2.23,2.6,2.6,0,0,1,2-.81,2.78,2.78,0,0,1,1.43.38,2.49,2.49,0,0,1,1,1.06,3.44,3.44,0,0,1,.33,1.53,3.26,3.26,0,0,1-.35,1.56,2.32,2.32,0,0,1-1,1,2.83,2.83,0,0,1-1.4.36,2.7,2.7,0,0,1-1.44-.39,2.57,2.57,0,0,1-1-1.07A3.36,3.36,0,0,1,35.89,336Zm.78,0a2.28,2.28,0,0,0,.55,1.63,1.95,1.95,0,0,0,2.81,0,2.43,2.43,0,0,0,.55-1.71,3.05,3.05,0,0,0-.23-1.22,1.79,1.79,0,0,0-.7-.81,1.87,1.87,0,0,0-1-.29,1.93,1.93,0,0,0-1.38.56A2.45,2.45,0,0,0,36.67,336Z" style="fill: #fff"/>
      <path d="M46.1,333h.76v3.31a3.89,3.89,0,0,1-.2,1.37,1.7,1.7,0,0,1-.7.83,2.53,2.53,0,0,1-1.34.32,2.81,2.81,0,0,1-1.32-.28,1.58,1.58,0,0,1-.73-.8,3.75,3.75,0,0,1-.22-1.44V333h.76v3.31a3.29,3.29,0,0,0,.14,1.1,1.07,1.07,0,0,0,.47.54,1.67,1.67,0,0,0,.83.19,1.59,1.59,0,0,0,1.19-.37,2.18,2.18,0,0,0,.36-1.46Z" style="fill: #fff"/>
      <path d="M49.57,338.75V333.7H47.69V333h4.54v.68h-1.9v5.05Z" style="fill: #fff"/>
    </g>
    <g>
      <path d="M2.3,360.75v-7.16h1v2.94H7v-2.94h1v7.16H7v-3.37H3.25v3.37Z" style="fill: #fff"/>
      <path d="M9.05,358.16a2.71,2.71,0,0,1,.8-2.14,2.44,2.44,0,0,1,1.64-.57,2.3,2.3,0,0,1,1.74.7,2.63,2.63,0,0,1,.68,1.93,3.44,3.44,0,0,1-.3,1.58,2.13,2.13,0,0,1-.87.89,2.55,2.55,0,0,1-1.25.32,2.33,2.33,0,0,1-1.76-.7A2.79,2.79,0,0,1,9.05,358.16Zm.91,0a2.21,2.21,0,0,0,.43,1.49,1.4,1.4,0,0,0,1.1.49,1.38,1.38,0,0,0,1.08-.49,2.28,2.28,0,0,0,.44-1.52,2.16,2.16,0,0,0-.44-1.46,1.38,1.38,0,0,0-1.08-.5,1.41,1.41,0,0,0-1.1.5A2.19,2.19,0,0,0,10,358.16Z" style="fill: #fff"/>
      <path d="M14.62,358.16a2.68,2.68,0,0,1,.8-2.14,2.42,2.42,0,0,1,1.63-.57,2.3,2.3,0,0,1,1.74.7,2.63,2.63,0,0,1,.68,1.93,3.44,3.44,0,0,1-.3,1.58,2.13,2.13,0,0,1-.87.89,2.55,2.55,0,0,1-1.25.32,2.33,2.33,0,0,1-1.76-.7A2.79,2.79,0,0,1,14.62,358.16Zm.9,0a2.21,2.21,0,0,0,.43,1.49,1.47,1.47,0,0,0,2.19,0,2.28,2.28,0,0,0,.43-1.52,2.16,2.16,0,0,0-.44-1.46,1.38,1.38,0,0,0-1.08-.5,1.41,1.41,0,0,0-1.1.5A2.19,2.19,0,0,0,15.52,358.16Z" style="fill: #fff"/>
      <path d="M20.5,362.74v-7.18h.8v.68a2.12,2.12,0,0,1,.64-.6,1.8,1.8,0,0,1,.87-.19,2,2,0,0,1,1.17.34,2.17,2.17,0,0,1,.77,1,3.59,3.59,0,0,1,.26,1.37,3.45,3.45,0,0,1-.29,1.43,2.17,2.17,0,0,1-2,1.32,1.57,1.57,0,0,1-.79-.19,1.69,1.69,0,0,1-.58-.47v2.53Zm.8-4.55a2.22,2.22,0,0,0,.41,1.48,1.22,1.22,0,0,0,1,.47,1.26,1.26,0,0,0,1-.49,2.34,2.34,0,0,0,.42-1.54,2.29,2.29,0,0,0-.41-1.48,1.22,1.22,0,0,0-1-.49,1.27,1.27,0,0,0-1,.52A2.34,2.34,0,0,0,21.3,358.19Z" style="fill: #fff"/>
      <path d="M28,360l.13.78a3.46,3.46,0,0,1-.66.08,1.49,1.49,0,0,1-.74-.15.91.91,0,0,1-.38-.4,3.29,3.29,0,0,1-.1-1v-3h-.65v-.69h.65v-1.28l.87-.53v1.81H28v.69H27.1v3a1.49,1.49,0,0,0,0,.48.35.35,0,0,0,.15.17.51.51,0,0,0,.3.07A2,2,0,0,0,28,360Z" style="fill: #fff"/>
      <path d="M28.85,354.6v-1h.88v1Zm0,6.15v-5.19h.88v5.19Z" style="fill: #fff"/>
      <path d="M34.62,359.08l.9.11a2.22,2.22,0,0,1-.79,1.24,2.42,2.42,0,0,1-1.49.44,2.38,2.38,0,0,1-1.8-.7,2.74,2.74,0,0,1-.67-2,2.86,2.86,0,0,1,.68-2,2.28,2.28,0,0,1,1.74-.72,2.18,2.18,0,0,1,1.7.71,2.8,2.8,0,0,1,.66,2v.23H31.68a2,2,0,0,0,.48,1.31,1.46,1.46,0,0,0,1.09.45,1.31,1.31,0,0,0,.82-.25A1.73,1.73,0,0,0,34.62,359.08Zm-2.89-1.42h2.89a1.63,1.63,0,0,0-.33-1,1.43,1.43,0,0,0-2.1-.1A1.58,1.58,0,0,0,31.73,357.66Z" style="fill: #fff"/>
    </g>
    <g>
      <path d="M67.13,338.75V333h2.54a3.38,3.38,0,0,1,1.16.16,1.25,1.25,0,0,1,.64.54,1.63,1.63,0,0,1,.24.87,1.41,1.41,0,0,1-.4,1,2,2,0,0,1-1.22.53,2.17,2.17,0,0,1,.46.29,4.11,4.11,0,0,1,.63.76l1,1.56h-1l-.76-1.19c-.22-.35-.4-.61-.54-.79a1.51,1.51,0,0,0-.39-.38,1,1,0,0,0-.34-.16l-.42,0h-.88v2.54Zm.76-3.2h1.63a2.51,2.51,0,0,0,.81-.11.84.84,0,0,0,.44-.34.88.88,0,0,0,.16-.51.85.85,0,0,0-.3-.67,1.36,1.36,0,0,0-.93-.26H67.89Z"/>
      <path d="M72.64,336.91l.71-.06a1.57,1.57,0,0,0,.24.7,1.26,1.26,0,0,0,.57.45,2.35,2.35,0,0,0,1.65,0,1.17,1.17,0,0,0,.49-.35.82.82,0,0,0,.16-.49.81.81,0,0,0-.15-.48,1.23,1.23,0,0,0-.52-.33,8.09,8.09,0,0,0-1-.28,5.56,5.56,0,0,1-1.1-.36,1.46,1.46,0,0,1-.61-.53,1.28,1.28,0,0,1-.2-.72,1.47,1.47,0,0,1,.24-.81,1.53,1.53,0,0,1,.72-.57,3.12,3.12,0,0,1,2.17,0,1.62,1.62,0,0,1,.75.6,1.68,1.68,0,0,1,.28.91l-.72.05a1.17,1.17,0,0,0-.4-.82,2,2,0,0,0-2,0,.74.74,0,0,0-.31.6.64.64,0,0,0,.22.51,3,3,0,0,0,1.14.41,8.16,8.16,0,0,1,1.27.36,1.8,1.8,0,0,1,.74.59,1.4,1.4,0,0,1,.24.81,1.51,1.51,0,0,1-.27.86,1.68,1.68,0,0,1-.75.63,2.61,2.61,0,0,1-1.1.23,3.29,3.29,0,0,1-1.3-.23,1.81,1.81,0,0,1-.83-.68A1.92,1.92,0,0,1,72.64,336.91Z"/>
      <path d="M79.69,338.75V333.7H77.8V333h4.54v.68H80.45v5.05Z"/>
    </g>
  </g>
</svg>
